<svg width="64" height="64" viewBox="0 0 64 64" fill="none" xmlns="http://www.w3.org/2000/svg">
<path d="M49.9465 14.4268L46.5332 17.0934L31.9999 27.8934L17.4665 16.9868L14.0532 14.3201C13.2491 13.6549 12.2675 13.2402 11.23 13.1274C10.1925 13.0147 9.14469 13.2087 8.21643 13.6856C7.28816 14.1626 6.52021 14.9013 6.00771 15.8104C5.49521 16.7195 5.26069 17.759 5.3332 18.8001V49.7068C5.3332 50.6686 5.7153 51.5911 6.39543 52.2712C7.07556 52.9513 7.99802 53.3334 8.95987 53.3334H17.4665V32.7468L31.9999 43.6534L46.5332 32.7468V53.3334H55.0399C56.0017 53.3334 56.9242 52.9513 57.6043 52.2712C58.2844 51.5911 58.6665 50.6686 58.6665 49.7068V18.8001C58.7166 17.768 58.4658 16.7436 57.9445 15.8514C57.4233 14.9591 56.6541 14.2375 55.7304 13.7743C54.8068 13.3111 53.7684 13.1261 52.7416 13.2419C51.7148 13.3578 50.7438 13.7694 49.9465 14.4268Z" fill="black"/>
</svg>
