<svg width="64" height="73" viewBox="0 0 64 73" fill="none" xmlns="http://www.w3.org/2000/svg">
<path d="M54.8571 73H13.7143C6.14286 73 0 66.8691 0 59.3125V13.6875C0 6.13086 6.14286 0 13.7143 0H57.1429C60.9286 0 64 3.06543 64 6.84375V47.9062C64 50.8861 62.0857 53.424 59.4286 54.365V63.875C61.9571 63.875 64 65.9139 64 68.4375C64 70.9611 61.9571 73 59.4286 73H54.8571ZM13.7143 54.75C11.1857 54.75 9.14286 56.7889 9.14286 59.3125C9.14286 61.8361 11.1857 63.875 13.7143 63.875H50.2857V54.75H13.7143ZM18.2857 21.6719C18.2857 23.5682 19.8143 25.0938 21.7143 25.0938H46.8571C48.7571 25.0938 50.2857 23.5682 50.2857 21.6719C50.2857 19.7756 48.7571 18.25 46.8571 18.25H21.7143C19.8143 18.25 18.2857 19.7756 18.2857 21.6719ZM21.7143 31.9375C19.8143 31.9375 18.2857 33.4631 18.2857 35.3594C18.2857 37.2557 19.8143 38.7812 21.7143 38.7812H46.8571C48.7571 38.7812 50.2857 37.2557 50.2857 35.3594C50.2857 33.4631 48.7571 31.9375 46.8571 31.9375H21.7143Z" fill="black"/>
</svg>
