<svg width="64" height="64" viewBox="0 0 64 64" fill="none" xmlns="http://www.w3.org/2000/svg">
<path d="M27.0238 28.0961L31.3198 24.1601C32.4945 23.0818 33.3201 21.677 33.6907 20.1261C34.0613 18.5752 33.96 16.949 33.3998 15.4561L31.5678 10.5641C30.8834 8.73776 29.5284 7.24108 27.7789 6.37897C26.0294 5.51687 24.0171 5.35419 22.1518 5.92408C15.2878 8.02408 10.0118 14.4041 11.6358 21.9801C12.7038 26.9641 14.7478 33.2201 18.6198 39.8761C22.4998 46.5481 26.9318 51.4761 30.7318 54.9401C36.4678 60.1601 44.6678 58.8561 49.9438 53.9361C51.3572 52.6169 52.2148 50.8087 52.3419 48.8795C52.4689 46.9503 51.856 45.0452 50.6278 43.5521L47.2678 39.4721C46.2544 38.2383 44.895 37.3359 43.3646 36.8811C41.8341 36.4263 40.2025 36.4399 38.6798 36.9201L33.1278 38.6681C31.6932 37.1891 30.4366 35.5473 29.3838 33.7761C28.3679 31.985 27.5753 30.0761 27.0238 28.0921" fill="black"/>
</svg>
