<svg width="64" height="64" viewBox="0 0 64 64" fill="none" xmlns="http://www.w3.org/2000/svg">
<path d="M31.8748 6C25.6962 6 20.8935 6 17.1548 6.4C13.3735 6.808 10.3788 7.65333 7.9895 9.56267C5.53616 11.5253 4.3895 14.0773 3.84816 17.296C3.3335 20.368 3.3335 24.2773 3.3335 29.152V29.64C3.3335 34.392 3.3335 37.68 3.86683 40.1307C4.15483 41.4507 4.60816 42.5973 5.32016 43.6587C6.02416 44.704 6.92016 45.584 7.9895 46.4373C9.67216 47.784 11.6562 48.5973 14.0002 49.104V56C14.0005 56.3504 14.0928 56.6946 14.268 56.998C14.4432 57.3015 14.695 57.5536 14.9983 57.7292C15.3015 57.9047 15.6456 57.9975 15.996 57.9982C16.3464 57.9989 16.6908 57.9076 16.9948 57.7333C18.5575 56.84 19.9415 55.8667 21.2082 54.9493L22.0188 54.36C22.9208 53.6847 23.8421 53.0356 24.7815 52.4133C27.0322 50.952 29.1815 50 32.0002 50H32.1255C38.3042 50 43.1068 50 46.8455 49.6C50.6268 49.192 53.6215 48.3467 56.0108 46.4373C57.0775 45.584 57.9762 44.704 58.6775 43.6587C59.3922 42.5973 59.8455 41.4507 60.1335 40.1307C60.6668 37.68 60.6668 34.392 60.6668 29.64V29.152C60.6668 24.2773 60.6668 20.368 60.1522 17.2987C59.6108 14.0773 58.4642 11.5253 56.0108 9.56267C53.6215 7.65067 50.6268 6.808 46.8455 6.40267C43.1068 6 38.3042 6 32.1255 6H31.8748Z" fill="black"/>
</svg>
