<svg width="56" height="64" viewBox="0 0 56 64" fill="none" xmlns="http://www.w3.org/2000/svg">
<path d="M48 64H12C5.375 64 0 58.625 0 52V12C0 5.375 5.375 0 12 0H50C53.3125 0 56 2.6875 56 6V42C56 44.6125 54.325 46.8375 52 47.6625V56C54.2125 56 56 57.7875 56 60C56 62.2125 54.2125 64 52 64H48ZM12 48C9.7875 48 8 49.7875 8 52C8 54.2125 9.7875 56 12 56H44V48H12ZM16 19C16 20.6625 17.3375 22 19 22H41C42.6625 22 44 20.6625 44 19C44 17.3375 42.6625 16 41 16H19C17.3375 16 16 17.3375 16 19ZM19 28C17.3375 28 16 29.3375 16 31C16 32.6625 17.3375 34 19 34H41C42.6625 34 44 32.6625 44 31C44 29.3375 42.6625 28 41 28H19Z" fill="black"/>
</svg>
